<svg width="560" height="160" viewBox="0 0 560 160" fill="none" xmlns="http://www.w3.org/2000/svg">
<g opacity="0.3">
<path d="M346.062 6.44121C346.062 6.44121 346.191 6.37248 346.444 6.24878" stroke="black" stroke-linecap="round" stroke-linejoin="round"/>
<path d="M347.73 5.66117C352.325 3.69223 365.922 -1.03253 382.402 3.69223C404.955 10.1591 441.648 61.9837 473.253 49.3935C493.472 41.3391 491.308 6.20065 469.124 3.83655C443.143 1.06698 435.032 16.9971 433.229 21.6738" stroke="black" stroke-linecap="round" stroke-linejoin="round" stroke-dasharray="2.99 4.98"/>
<path d="M432.931 22.4539C432.827 22.7631 432.783 22.9349 432.783 22.9349" stroke="black" stroke-linecap="round" stroke-linejoin="round"/>
</g>
<g opacity="0.3">
<path d="M498.152 1.79858H479.332V19.5534H498.152V1.79858Z" stroke="black" stroke-linecap="round" stroke-linejoin="round"/>
<path d="M498.152 1.79858H479.332V4.57159H498.152V1.79858Z" stroke="black" stroke-linecap="round" stroke-linejoin="round"/>
<path d="M486.482 9.18975C486.482 8.75072 486.377 8.32155 486.182 7.95651C485.987 7.59147 485.709 7.30695 485.384 7.13894C485.059 6.97093 484.701 6.92697 484.356 7.01262C484.011 7.09827 483.694 7.30969 483.446 7.62013C483.197 7.93057 483.028 8.3261 482.959 8.75669C482.89 9.18729 482.926 9.63361 483.06 10.0392C483.195 10.4448 483.423 10.7915 483.715 11.0354C484.008 11.2793 484.352 11.4095 484.703 11.4095C485.175 11.4095 485.627 11.1757 485.961 10.7594C486.294 10.3431 486.482 9.77847 486.482 9.18975Z" stroke="black" stroke-linecap="round" stroke-linejoin="round"/>
<path d="M484.266 12.7117H485.155C485.764 12.7117 486.348 13.0136 486.779 13.5511C487.209 14.0885 487.451 14.8174 487.451 15.5775V17.7045H481.961V15.5775C481.961 15.2003 482.021 14.8268 482.137 14.4784C482.253 14.13 482.423 13.8137 482.637 13.5474C482.851 13.2812 483.105 13.0703 483.385 12.9269C483.664 12.7835 483.964 12.7103 484.266 12.7117Z" stroke="black" stroke-linecap="round" stroke-linejoin="round"/>
<path d="M490.149 8.45776H496.966" stroke="black" stroke-linecap="round" stroke-linejoin="round"/>
<path d="M490.149 10.8599H496.966" stroke="black" stroke-linecap="round" stroke-linejoin="round"/>
<path d="M490.149 13.2651H496.966" stroke="black" stroke-linecap="round" stroke-linejoin="round"/>
<path d="M490.149 15.6704H496.966" stroke="black" stroke-linecap="round" stroke-linejoin="round"/>
</g>
<g opacity="0.3">
<path d="M340.416 0.534558L320.518 12.9768L326.518 27.9262L346.416 15.4839L340.416 0.534558Z" fill="white" stroke="black" stroke-linecap="round" stroke-linejoin="round"/>
<path d="M320.516 12.9766L334.35 16.4334L340.415 0.53418" stroke="black" stroke-linecap="round" stroke-linejoin="round"/>
<path d="M326.518 27.9276L330.487 15.5676" stroke="black" stroke-linecap="round" stroke-linejoin="round"/>
<path d="M346.414 15.4851L336.393 11.5334" stroke="black" stroke-linecap="round" stroke-linejoin="round"/>
</g>
<path d="M204.073 77.7173H235.5" stroke="#263238" stroke-linecap="round" stroke-linejoin="round"/>
<path d="M48.3379 77.7173H200.232" stroke="#263238" stroke-linecap="round" stroke-linejoin="round"/>
<path d="M0.5 77.7173H45.1954" stroke="#263238" stroke-linecap="round" stroke-linejoin="round"/>
<path d="M118.873 85.6202C182.898 85.6202 234.801 84.5433 234.801 83.2149C234.801 81.8865 182.898 80.8096 118.873 80.8096C54.8469 80.8096 2.94385 81.8865 2.94385 83.2149C2.94385 84.5433 54.8469 85.6202 118.873 85.6202Z" fill="#CCCCCC"/>
<path d="M525.624 111.195C525.624 111.195 532.881 118.387 536.36 125.881C539.84 133.375 539.725 138.454 539.725 138.454C539.725 138.454 529.475 129.324 527.154 123.139C525.766 119.412 525.236 115.276 525.624 111.195Z" fill="#92E3A9"/>
<path d="M556.29 101.168C556.29 101.168 557.879 114.081 554.071 122.032C550.264 129.984 539.786 138.258 539.786 138.258C539.786 138.258 538.28 132.454 543.772 123.637C549.264 114.82 556.29 101.168 556.29 101.168Z" fill="#92E3A9"/>
<path d="M539.235 123.933C539.235 123.933 539.337 113.996 544.278 103.756C549.22 93.516 555.142 83.1387 556.532 78.7267C557.457 75.675 558.205 72.5446 558.771 69.3596C558.771 69.3596 560.827 77.8745 556.978 89.2036C553.13 100.533 539.235 123.933 539.235 123.933Z" fill="#92E3A9"/>
<path d="M539.609 119.851C539.609 119.851 533.776 110.59 529.745 99.9997C525.715 89.4094 526.364 78.4136 526.364 78.4136C526.364 78.4136 533.93 90.6533 536.336 100.213C538.742 109.772 539.609 119.851 539.609 119.851Z" fill="#92E3A9"/>
<path d="M540.766 98.9137C540.766 98.9137 542.142 83.6983 545.424 75.2555C548.705 66.8128 555.437 53.7656 555.437 53.7656C555.437 53.7656 556.263 68.3729 550.974 80.0284C545.685 91.684 540.766 98.9137 540.766 98.9137Z" fill="#92E3A9"/>
<path d="M541.036 90.1758C541.036 90.1758 534.197 77.4619 532.33 68.3697C530.464 59.2776 528.842 43.8972 528.842 43.8972C528.842 43.8972 537.041 54.3707 539.045 67.5279C541.049 80.685 541.036 90.1758 541.036 90.1758Z" fill="#92E3A9"/>
<path d="M537.652 35.3032C537.652 35.3032 544.072 41.2135 543.056 53.6215C542.04 66.0296 541.06 70.2218 541.06 70.2218C542.057 61.7206 537.652 35.3032 537.652 35.3032Z" fill="#92E3A9"/>
<path d="M539.904 142.399C539.904 142.399 539.304 140.437 539.304 125.469C539.304 110.501 540.876 104.614 540.876 89.8938C540.876 75.1732 541.663 61.4319 541.663 61.4319" stroke="#263238" stroke-width="0.75" stroke-miterlimit="10"/>
<path d="M540.804 97.464C540.804 97.464 545.077 85.9734 546.886 81.6575C548.562 77.6647 550.503 71.1909 550.503 71.1909" stroke="#263238" stroke-width="0.75" stroke-miterlimit="10"/>
<path d="M548.939 102.178C546.31 108.247 540.317 122.026 539.235 123.94" stroke="#263238" stroke-width="0.75" stroke-miterlimit="10"/>
<path d="M550.176 99.3091L549.43 101.027" stroke="#263238" stroke-width="0.75" stroke-miterlimit="10"/>
<path d="M533.016 99.2165L531.598 95.0002" stroke="#263238" stroke-width="0.75" stroke-miterlimit="10"/>
<path d="M539.323 117.981L533.644 101.089" stroke="#263238" stroke-width="0.75" stroke-miterlimit="10"/>
<path d="M534.838 130.791C533.619 128.898 532.336 126.788 531.259 124.754" stroke="#263238" stroke-width="0.75" stroke-miterlimit="10"/>
<path d="M546.385 127.493C543.538 131.774 539.323 137.272 539.323 137.272C539.323 137.272 537.842 135.296 535.989 132.537" stroke="#263238" stroke-width="0.75" stroke-miterlimit="10"/>
<path d="M548.53 123.933C548.204 124.576 547.852 125.198 547.475 125.795" stroke="#263238" stroke-width="0.75" stroke-miterlimit="10"/>
<path d="M536.997 71.9604L536.036 67.916" stroke="#263238" stroke-width="0.75" stroke-miterlimit="10"/>
<path d="M540.804 88.025L537.503 74.1084" stroke="#263238" stroke-width="0.75" stroke-miterlimit="10"/>
<path d="M531.449 135.241H548.606V142.89H546.988L544.898 159.717H535.155L533.068 142.89H531.449V135.241Z" fill="#263238"/>
</svg>
